<svg width="350" height="140" viewBox="0 0 350 140" fill="none" xmlns="http://www.w3.org/2000/svg">
<g clip-path="url(#clip0)">
<rect width="350" height="140" fill="#488AFF"/>
<path d="M84.632 40.024H120.216C121.581 40.024 122.584 40.1947 123.224 40.536C123.864 40.8347 124.291 41.3253 124.504 42.008C124.717 42.6907 124.824 43.5867 124.824 44.696C124.824 45.8053 124.717 46.7013 124.504 47.384C124.291 48.024 123.928 48.472 123.416 48.728C122.648 49.112 121.56 49.304 120.152 49.304H107.928V81.496C107.928 82.4773 107.885 83.2027 107.8 83.672C107.757 84.1413 107.565 84.696 107.224 85.336C106.925 85.9333 106.371 86.36 105.56 86.616C104.749 86.872 103.683 87 102.36 87C101.037 87 99.9707 86.872 99.16 86.616C98.392 86.36 97.8373 85.9333 97.496 85.336C97.1973 84.696 97.0053 84.1413 96.92 83.672C96.8773 83.16 96.856 82.4133 96.856 81.432V49.304H84.568C83.2027 49.304 82.2 49.1547 81.56 48.856C80.92 48.5147 80.4933 48.0027 80.28 47.32C80.0667 46.6373 79.96 45.7413 79.96 44.632C79.96 43.5227 80.0667 42.648 80.28 42.008C80.4933 41.3253 80.856 40.856 81.368 40.6C82.136 40.216 83.224 40.024 84.632 40.024ZM159.029 41.816C159.455 41.1333 160.074 40.664 160.885 40.408C161.695 40.152 162.698 40.024 163.893 40.024C165.13 40.024 166.111 40.1307 166.837 40.344C167.562 40.5573 168.117 40.8133 168.501 41.112C168.885 41.4107 169.162 41.8587 169.333 42.456C169.589 43.1813 169.717 44.2907 169.717 45.784V65.112C169.717 70.744 167.967 75.864 164.469 80.472C162.762 82.648 160.565 84.4187 157.877 85.784C155.189 87.1067 152.202 87.768 148.917 87.768C145.674 87.768 142.709 87.0853 140.021 85.72C137.375 84.3547 135.221 82.5627 133.557 80.344C130.101 75.8213 128.373 70.7013 128.373 64.984V45.72C128.373 44.696 128.394 43.9493 128.437 43.48C128.522 42.968 128.735 42.392 129.077 41.752C129.418 41.112 129.994 40.664 130.805 40.408C131.615 40.152 132.703 40.024 134.069 40.024C135.434 40.024 136.522 40.152 137.333 40.408C138.143 40.664 138.698 41.112 138.997 41.752C139.509 42.7333 139.765 44.0773 139.765 45.784V64.984C139.765 67.5867 140.405 70.0613 141.685 72.408C142.325 73.6027 143.285 74.5627 144.565 75.288C145.845 76.0133 147.359 76.376 149.109 76.376C152.223 76.376 154.549 75.224 156.085 72.92C157.621 70.616 158.389 67.9493 158.389 64.92V45.336C158.389 43.672 158.602 42.4987 159.029 41.816ZM180.506 40.024L192.346 40.088C198.533 40.088 203.973 42.328 208.666 46.808C213.359 51.2453 215.706 56.728 215.706 63.256C215.706 69.7413 213.402 75.3093 208.794 79.96C204.229 84.6107 198.682 86.936 192.154 86.936H180.442C177.839 86.936 176.218 86.4027 175.578 85.336C175.066 84.44 174.81 83.0747 174.81 81.24V45.656C174.81 44.632 174.831 43.8853 174.874 43.416C174.959 42.9467 175.173 42.392 175.514 41.752C176.111 40.6 177.775 40.024 180.506 40.024ZM192.346 75.608C195.418 75.608 198.191 74.4773 200.666 72.216C203.141 69.912 204.378 67.032 204.378 63.576C204.378 60.12 203.162 57.24 200.73 54.936C198.341 52.5893 195.525 51.416 192.282 51.416H186.138V75.608H192.346ZM250.529 41.816C250.955 41.1333 251.574 40.664 252.385 40.408C253.195 40.152 254.198 40.024 255.393 40.024C256.63 40.024 257.611 40.1307 258.337 40.344C259.062 40.5573 259.617 40.8133 260.001 41.112C260.385 41.4107 260.662 41.8587 260.833 42.456C261.089 43.1813 261.217 44.2907 261.217 45.784V65.112C261.217 70.744 259.467 75.864 255.969 80.472C254.262 82.648 252.065 84.4187 249.377 85.784C246.689 87.1067 243.702 87.768 240.417 87.768C237.174 87.768 234.209 87.0853 231.521 85.72C228.875 84.3547 226.721 82.5627 225.057 80.344C221.601 75.8213 219.873 70.7013 219.873 64.984V45.72C219.873 44.696 219.894 43.9493 219.937 43.48C220.022 42.968 220.235 42.392 220.577 41.752C220.918 41.112 221.494 40.664 222.305 40.408C223.115 40.152 224.203 40.024 225.569 40.024C226.934 40.024 228.022 40.152 228.833 40.408C229.643 40.664 230.198 41.112 230.497 41.752C231.009 42.7333 231.265 44.0773 231.265 45.784V64.984C231.265 67.5867 231.905 70.0613 233.185 72.408C233.825 73.6027 234.785 74.5627 236.065 75.288C237.345 76.0133 238.859 76.376 240.609 76.376C243.723 76.376 246.049 75.224 247.585 72.92C249.121 70.616 249.889 67.9493 249.889 64.92V45.336C249.889 43.672 250.102 42.4987 250.529 41.816Z" fill="white"/>
<path d="M102.918 114.146C102.606 113.762 102.45 113.42 102.45 113.12C102.45 112.808 102.708 112.4 103.224 111.896C103.524 111.608 103.842 111.464 104.178 111.464C104.514 111.464 104.982 111.764 105.582 112.364C105.75 112.568 105.99 112.766 106.302 112.958C106.614 113.138 106.902 113.228 107.166 113.228C108.282 113.228 108.84 112.772 108.84 111.86C108.84 111.584 108.684 111.356 108.372 111.176C108.072 110.984 107.694 110.846 107.238 110.762C106.782 110.678 106.29 110.546 105.762 110.366C105.234 110.174 104.742 109.952 104.286 109.7C103.83 109.448 103.446 109.052 103.134 108.512C102.834 107.96 102.684 107.3 102.684 106.532C102.684 105.476 103.074 104.558 103.854 103.778C104.646 102.986 105.72 102.59 107.076 102.59C107.796 102.59 108.45 102.686 109.038 102.878C109.638 103.058 110.052 103.244 110.28 103.436L110.73 103.778C111.102 104.126 111.288 104.42 111.288 104.66C111.288 104.9 111.144 105.23 110.856 105.65C110.448 106.25 110.028 106.55 109.596 106.55C109.344 106.55 109.032 106.43 108.66 106.19C108.624 106.166 108.552 106.106 108.444 106.01C108.348 105.914 108.258 105.836 108.174 105.776C107.922 105.62 107.598 105.542 107.202 105.542C106.818 105.542 106.494 105.638 106.23 105.83C105.978 106.01 105.852 106.268 105.852 106.604C105.852 106.928 106.002 107.192 106.302 107.396C106.614 107.6 106.998 107.738 107.454 107.81C107.91 107.882 108.408 107.996 108.948 108.152C109.488 108.296 109.986 108.476 110.442 108.692C110.898 108.908 111.276 109.286 111.576 109.826C111.888 110.354 112.044 111.008 112.044 111.788C112.044 112.568 111.888 113.258 111.576 113.858C111.264 114.446 110.856 114.902 110.352 115.226C109.38 115.862 108.342 116.18 107.238 116.18C106.674 116.18 106.14 116.114 105.636 115.982C105.132 115.838 104.724 115.664 104.412 115.46C103.776 115.076 103.332 114.704 103.08 114.344L102.918 114.146ZM113.214 108.098C113.214 107.822 113.22 107.618 113.232 107.486C113.256 107.342 113.31 107.18 113.394 107C113.562 106.688 114.03 106.532 114.798 106.532C115.374 106.532 115.782 106.634 116.022 106.838C116.226 107.006 116.334 107.264 116.346 107.612C116.358 107.732 116.364 107.906 116.364 108.134V114.434C116.364 114.71 116.352 114.92 116.328 115.064C116.316 115.196 116.262 115.352 116.166 115.532C116.01 115.844 115.548 116 114.78 116C114.024 116 113.562 115.838 113.394 115.514C113.31 115.334 113.256 115.178 113.232 115.046C113.22 114.914 113.214 114.704 113.214 114.416V108.098ZM116.166 104.768C116.082 104.936 115.926 105.056 115.698 105.128C115.47 105.2 115.164 105.236 114.78 105.236C114.408 105.236 114.108 105.2 113.88 105.128C113.652 105.056 113.49 104.93 113.394 104.75C113.31 104.57 113.256 104.414 113.232 104.282C113.22 104.138 113.214 103.928 113.214 103.652C113.214 103.376 113.22 103.172 113.232 103.04C113.256 102.896 113.31 102.74 113.394 102.572C113.562 102.248 114.03 102.086 114.798 102.086C115.554 102.086 116.01 102.248 116.166 102.572C116.262 102.752 116.316 102.914 116.328 103.058C116.352 103.19 116.364 103.394 116.364 103.67C116.364 103.946 116.352 104.156 116.328 104.3C116.316 104.432 116.262 104.588 116.166 104.768ZM120.898 107.774C121.462 106.922 122.14 106.496 122.932 106.496C124.156 106.496 125.068 107.018 125.668 108.062C125.8 107.882 125.956 107.696 126.136 107.504C126.328 107.3 126.628 107.084 127.036 106.856C127.444 106.616 127.864 106.496 128.296 106.496C129.256 106.496 130.06 106.868 130.708 107.612C131.356 108.344 131.68 109.562 131.68 111.266V114.416C131.68 114.692 131.668 114.902 131.644 115.046C131.632 115.178 131.578 115.334 131.482 115.514C131.326 115.838 130.864 116 130.096 116C129.34 116 128.878 115.832 128.71 115.496C128.626 115.316 128.572 115.16 128.548 115.028C128.536 114.884 128.53 114.674 128.53 114.398V111.248C128.53 110.204 128.158 109.682 127.414 109.682C126.994 109.682 126.706 109.82 126.55 110.096C126.406 110.372 126.334 110.762 126.334 111.266V114.416C126.334 114.704 126.322 114.914 126.298 115.046C126.286 115.178 126.232 115.334 126.136 115.514C125.968 115.838 125.5 116 124.732 116C123.976 116 123.514 115.832 123.346 115.496C123.262 115.316 123.208 115.16 123.184 115.028C123.172 114.884 123.166 114.674 123.166 114.398V111.248C123.166 110.204 122.794 109.682 122.05 109.682C121.33 109.682 120.97 110.204 120.97 111.248V114.434C120.97 114.71 120.958 114.92 120.934 115.064C120.922 115.196 120.868 115.352 120.772 115.532C120.592 115.844 120.124 116 119.368 116C118.612 116 118.15 115.838 117.982 115.514C117.898 115.334 117.844 115.178 117.82 115.046C117.808 114.914 117.802 114.704 117.802 114.416V108.08C117.802 107.804 117.808 107.6 117.82 107.468C117.844 107.324 117.904 107.168 118 107C118.18 106.676 118.606 106.514 119.278 106.514C119.95 106.514 120.388 106.622 120.592 106.838C120.796 107.054 120.898 107.366 120.898 107.774ZM133.113 118.574V108.062C133.113 107.786 133.119 107.582 133.131 107.45C133.155 107.318 133.209 107.168 133.293 107C133.461 106.676 133.863 106.514 134.499 106.514C135.135 106.514 135.561 106.598 135.777 106.766C136.005 106.922 136.137 107.156 136.173 107.468C136.629 106.844 137.343 106.532 138.315 106.532C139.299 106.532 140.229 106.994 141.105 107.918C141.981 108.842 142.419 109.916 142.419 111.14C142.419 112.364 141.981 113.438 141.105 114.362C140.241 115.286 139.317 115.748 138.333 115.748C137.349 115.748 136.635 115.472 136.191 114.92V118.556C136.191 118.832 136.179 119.036 136.155 119.168C136.143 119.3 136.089 119.45 135.993 119.618C135.909 119.798 135.759 119.924 135.543 119.996C135.327 120.068 135.033 120.104 134.661 120.104C134.289 120.104 133.989 120.068 133.761 119.996C133.545 119.924 133.389 119.804 133.293 119.636C133.209 119.468 133.155 119.318 133.131 119.186C133.119 119.054 133.113 118.85 133.113 118.574ZM136.677 110.096C136.401 110.42 136.263 110.774 136.263 111.158C136.263 111.542 136.401 111.896 136.677 112.22C136.965 112.532 137.325 112.688 137.757 112.688C138.201 112.688 138.573 112.532 138.873 112.22C139.185 111.908 139.341 111.554 139.341 111.158C139.341 110.762 139.197 110.408 138.909 110.096C138.621 109.772 138.243 109.61 137.775 109.61C137.319 109.61 136.953 109.772 136.677 110.096ZM143.589 103.634C143.589 103.358 143.595 103.154 143.607 103.022C143.631 102.878 143.685 102.716 143.769 102.536C143.937 102.212 144.405 102.05 145.173 102.05C145.905 102.05 146.361 102.212 146.541 102.536C146.637 102.716 146.691 102.878 146.703 103.022C146.727 103.166 146.739 103.376 146.739 103.652V111.986C146.739 112.418 146.775 112.694 146.847 112.814C146.919 112.922 147.075 112.976 147.315 112.976C147.567 112.976 147.735 112.988 147.819 113.012C147.903 113.024 148.005 113.072 148.125 113.156C148.365 113.312 148.485 113.738 148.485 114.434C148.485 115.19 148.365 115.652 148.125 115.82C147.813 116.036 147.069 116.072 145.893 115.928C144.969 115.808 144.369 115.502 144.093 115.01C143.757 114.422 143.589 113.486 143.589 112.202V103.634ZM158.446 110.132C158.446 110.864 158.26 111.41 157.888 111.77C157.528 112.118 157.126 112.292 156.682 112.292H152.416C152.416 112.628 152.614 112.91 153.01 113.138C153.406 113.366 153.802 113.48 154.198 113.48C154.894 113.48 155.44 113.408 155.836 113.264L156.034 113.192C156.322 113.06 156.562 112.994 156.754 112.994C157.138 112.994 157.468 113.264 157.744 113.804C157.9 114.128 157.978 114.404 157.978 114.632C157.978 115.7 156.7 116.234 154.144 116.234C153.256 116.234 152.464 116.084 151.768 115.784C151.084 115.472 150.55 115.064 150.166 114.56C149.41 113.588 149.032 112.502 149.032 111.302C149.032 109.79 149.518 108.584 150.49 107.684C151.474 106.772 152.698 106.316 154.162 106.316C155.83 106.316 157.054 106.904 157.834 108.08C158.242 108.704 158.446 109.388 158.446 110.132ZM154.648 110.654C155.104 110.654 155.332 110.462 155.332 110.078C155.332 109.802 155.224 109.58 155.008 109.412C154.804 109.244 154.504 109.16 154.108 109.16C153.724 109.16 153.34 109.322 152.956 109.646C152.572 109.958 152.38 110.294 152.38 110.654H154.648ZM165.037 102.788H175.045C175.429 102.788 175.711 102.836 175.891 102.932C176.071 103.016 176.191 103.154 176.251 103.346C176.311 103.538 176.341 103.79 176.341 104.102C176.341 104.414 176.311 104.666 176.251 104.858C176.191 105.038 176.089 105.164 175.945 105.236C175.729 105.344 175.423 105.398 175.027 105.398H171.589V114.452C171.589 114.728 171.577 114.932 171.553 115.064C171.541 115.196 171.487 115.352 171.391 115.532C171.307 115.7 171.151 115.82 170.923 115.892C170.695 115.964 170.395 116 170.023 116C169.651 116 169.351 115.964 169.123 115.892C168.907 115.82 168.751 115.7 168.655 115.532C168.571 115.352 168.517 115.196 168.493 115.064C168.481 114.92 168.475 114.71 168.475 114.434V105.398H165.019C164.635 105.398 164.353 105.356 164.173 105.272C163.993 105.176 163.873 105.032 163.813 104.84C163.753 104.648 163.723 104.396 163.723 104.084C163.723 103.772 163.753 103.526 163.813 103.346C163.873 103.154 163.975 103.022 164.119 102.95C164.335 102.842 164.641 102.788 165.037 102.788ZM181.333 107.522C181.405 106.85 181.879 106.514 182.755 106.514C183.223 106.514 183.571 106.55 183.799 106.622C184.027 106.694 184.183 106.82 184.267 107C184.363 107.18 184.417 107.342 184.429 107.486C184.453 107.618 184.465 107.822 184.465 108.098V114.398C184.465 114.674 184.453 114.884 184.429 115.028C184.417 115.16 184.369 115.316 184.285 115.496C184.117 115.808 183.703 115.964 183.043 115.964C182.395 115.964 181.957 115.886 181.729 115.73C181.513 115.562 181.387 115.322 181.351 115.01C180.907 115.646 180.163 115.964 179.119 115.964C178.087 115.964 177.127 115.49 176.239 114.542C175.351 113.594 174.907 112.496 174.907 111.248C174.907 109.988 175.351 108.89 176.239 107.954C177.139 107.006 178.123 106.532 179.191 106.532C179.599 106.532 179.971 106.604 180.307 106.748C180.643 106.892 180.877 107.03 181.009 107.162C181.141 107.282 181.249 107.402 181.333 107.522ZM178.057 111.266C178.057 111.662 178.213 112.022 178.525 112.346C178.837 112.658 179.215 112.814 179.659 112.814C180.103 112.814 180.469 112.652 180.757 112.328C181.057 112.004 181.207 111.65 181.207 111.266C181.207 110.87 181.063 110.504 180.775 110.168C180.499 109.832 180.121 109.664 179.641 109.664C179.173 109.664 178.789 109.832 178.489 110.168C178.201 110.504 178.057 110.87 178.057 111.266ZM185.972 115.154C185.744 115.01 185.63 114.782 185.63 114.47C185.63 114.158 185.858 113.684 186.314 113.048C186.446 112.844 186.656 112.742 186.944 112.742C187.244 112.742 187.646 112.892 188.15 113.192C188.654 113.48 189.11 113.624 189.518 113.624C190.25 113.624 190.616 113.48 190.616 113.192C190.616 112.964 190.214 112.796 189.41 112.688C188.654 112.58 187.904 112.298 187.16 111.842C186.812 111.626 186.524 111.29 186.296 110.834C186.068 110.366 185.954 109.814 185.954 109.178C185.954 107.282 187.256 106.334 189.86 106.334C190.712 106.334 191.588 106.538 192.488 106.946C192.908 107.138 193.118 107.378 193.118 107.666C193.118 107.954 192.986 108.308 192.722 108.728C192.458 109.148 192.188 109.358 191.912 109.358C191.768 109.358 191.498 109.268 191.102 109.088C190.718 108.908 190.298 108.818 189.842 108.818C189.134 108.818 188.78 108.95 188.78 109.214C188.78 109.574 189.188 109.808 190.004 109.916C190.796 110 191.564 110.228 192.308 110.6C192.656 110.768 192.944 111.062 193.172 111.482C193.412 111.89 193.532 112.406 193.532 113.03C193.532 113.654 193.412 114.188 193.172 114.632C192.944 115.064 192.62 115.388 192.2 115.604C191.432 115.976 190.466 116.162 189.302 116.162C188.15 116.162 187.04 115.826 185.972 115.154ZM200.286 111.248L202.68 113.228C202.98 113.48 203.166 113.672 203.238 113.804C203.322 113.936 203.364 114.062 203.364 114.182C203.364 114.47 203.178 114.86 202.806 115.352C202.398 115.856 202.038 116.108 201.726 116.108C201.462 116.108 201.096 115.934 200.628 115.586L200.448 115.46C200.172 115.232 199.746 114.836 199.17 114.272C198.594 113.696 198.156 113.288 197.856 113.048V114.434C197.856 114.71 197.844 114.92 197.82 115.064C197.808 115.196 197.754 115.352 197.658 115.532C197.502 115.844 197.04 116 196.272 116C195.516 116 195.054 115.838 194.886 115.514C194.802 115.334 194.748 115.178 194.724 115.046C194.712 114.902 194.706 114.692 194.706 114.416V103.634C194.706 103.358 194.712 103.154 194.724 103.022C194.748 102.878 194.802 102.716 194.886 102.536C195.054 102.212 195.522 102.05 196.29 102.05C196.866 102.05 197.274 102.152 197.514 102.356C197.718 102.524 197.826 102.788 197.838 103.148C197.85 103.256 197.856 103.424 197.856 103.652V109.358C198.072 109.178 198.396 108.872 198.828 108.44C199.272 108.008 199.602 107.702 199.818 107.522L200.034 107.378C200.454 107.054 200.814 106.892 201.114 106.892C201.414 106.892 201.756 107.138 202.14 107.63C202.536 108.11 202.734 108.488 202.734 108.764C202.734 109.04 202.512 109.364 202.068 109.736L200.286 111.248ZM216.523 103.742L221.383 113.786C221.587 114.194 221.689 114.5 221.689 114.704C221.689 115.136 221.341 115.526 220.645 115.874C220.237 116.078 219.913 116.18 219.673 116.18C219.445 116.18 219.253 116.126 219.097 116.018C218.953 115.91 218.845 115.796 218.773 115.676C218.713 115.556 218.623 115.376 218.503 115.136L217.567 113.192H212.581L211.645 115.136C211.525 115.376 211.429 115.55 211.357 115.658C211.297 115.766 211.189 115.88 211.033 116C210.889 116.108 210.697 116.162 210.457 116.162C210.229 116.162 209.911 116.06 209.503 115.856C208.807 115.52 208.459 115.136 208.459 114.704C208.459 114.5 208.561 114.194 208.765 113.786L213.625 103.724C213.757 103.448 213.955 103.226 214.219 103.058C214.495 102.89 214.783 102.806 215.083 102.806C215.731 102.806 216.211 103.118 216.523 103.742ZM215.065 108.062L213.877 110.528H216.271L215.065 108.062ZM222.673 118.574V108.062C222.673 107.786 222.679 107.582 222.691 107.45C222.715 107.318 222.769 107.168 222.853 107C223.021 106.676 223.423 106.514 224.059 106.514C224.695 106.514 225.121 106.598 225.337 106.766C225.565 106.922 225.697 107.156 225.733 107.468C226.189 106.844 226.903 106.532 227.875 106.532C228.859 106.532 229.789 106.994 230.665 107.918C231.541 108.842 231.979 109.916 231.979 111.14C231.979 112.364 231.541 113.438 230.665 114.362C229.801 115.286 228.877 115.748 227.893 115.748C226.909 115.748 226.195 115.472 225.751 114.92V118.556C225.751 118.832 225.739 119.036 225.715 119.168C225.703 119.3 225.649 119.45 225.553 119.618C225.469 119.798 225.319 119.924 225.103 119.996C224.887 120.068 224.593 120.104 224.221 120.104C223.849 120.104 223.549 120.068 223.321 119.996C223.105 119.924 222.949 119.804 222.853 119.636C222.769 119.468 222.715 119.318 222.691 119.186C222.679 119.054 222.673 118.85 222.673 118.574ZM226.237 110.096C225.961 110.42 225.823 110.774 225.823 111.158C225.823 111.542 225.961 111.896 226.237 112.22C226.525 112.532 226.885 112.688 227.317 112.688C227.761 112.688 228.133 112.532 228.433 112.22C228.745 111.908 228.901 111.554 228.901 111.158C228.901 110.762 228.757 110.408 228.469 110.096C228.181 109.772 227.803 109.61 227.335 109.61C226.879 109.61 226.513 109.772 226.237 110.096ZM233.15 118.574V108.062C233.15 107.786 233.156 107.582 233.168 107.45C233.192 107.318 233.246 107.168 233.33 107C233.498 106.676 233.9 106.514 234.536 106.514C235.172 106.514 235.598 106.598 235.814 106.766C236.042 106.922 236.174 107.156 236.21 107.468C236.666 106.844 237.38 106.532 238.352 106.532C239.336 106.532 240.266 106.994 241.142 107.918C242.018 108.842 242.456 109.916 242.456 111.14C242.456 112.364 242.018 113.438 241.142 114.362C240.278 115.286 239.354 115.748 238.37 115.748C237.386 115.748 236.672 115.472 236.228 114.92V118.556C236.228 118.832 236.216 119.036 236.192 119.168C236.18 119.3 236.126 119.45 236.03 119.618C235.946 119.798 235.796 119.924 235.58 119.996C235.364 120.068 235.07 120.104 234.698 120.104C234.326 120.104 234.026 120.068 233.798 119.996C233.582 119.924 233.426 119.804 233.33 119.636C233.246 119.468 233.192 119.318 233.168 119.186C233.156 119.054 233.15 118.85 233.15 118.574ZM236.714 110.096C236.438 110.42 236.3 110.774 236.3 111.158C236.3 111.542 236.438 111.896 236.714 112.22C237.002 112.532 237.362 112.688 237.794 112.688C238.238 112.688 238.61 112.532 238.91 112.22C239.222 111.908 239.378 111.554 239.378 111.158C239.378 110.762 239.234 110.408 238.946 110.096C238.658 109.772 238.28 109.61 237.812 109.61C237.356 109.61 236.99 109.772 236.714 110.096Z" fill="white"/>
</g>
<defs>
<clipPath id="clip0">
<rect width="350" height="140" fill="white"/>
</clipPath>
</defs>
</svg>
